<?xml version="1.0" encoding="UTF-8" standalone="no"?><svg xmlns="http://www.w3.org/2000/svg" xmlns:xlink="http://www.w3.org/1999/xlink" contentScriptType="application/ecmascript" contentStyleType="text/css" height="352px" preserveAspectRatio="none" style="width:685px;height:352px;" version="1.1" viewBox="0 0 685 352" width="685px" zoomAndPan="magnify"><defs><filter height="300%" id="fk1n9bq91sfqg" width="300%" x="-1" y="-1"><feGaussianBlur result="blurOut" stdDeviation="2.0"/><feColorMatrix in="blurOut" result="blurOut2" type="matrix" values="0 0 0 0 0 0 0 0 0 0 0 0 0 0 0 0 0 0 .4 0"/><feOffset dx="4.0" dy="4.0" in="blurOut2" result="blurOut3"/><feBlend in="SourceGraphic" in2="blurOut3" mode="normal"/></filter></defs><g><!--cluster md1--><rect fill="#FFFFFF" filter="url(#fk1n9bq91sfqg)" height="71" style="stroke: #000000; stroke-width: 1.5;" width="205" x="14" y="270"/><path d="M153,271 L153,279.2969 L143,289.2969 L14,289.2969 " fill="none" style="stroke: #000000; stroke-width: 1.5;"/><text fill="#000000" font-family="sans-serif" font-size="14" font-weight="bold" lengthAdjust="spacingAndGlyphs" textLength="129" x="17" y="283.9951">Managed device</text><!--cluster md2--><rect fill="#FFFFFF" filter="url(#fk1n9bq91sfqg)" height="71" style="stroke: #000000; stroke-width: 1.5;" width="205" x="238" y="270"/><path d="M377,271 L377,279.2969 L367,289.2969 L238,289.2969 " fill="none" style="stroke: #000000; stroke-width: 1.5;"/><text fill="#000000" font-family="sans-serif" font-size="14" font-weight="bold" lengthAdjust="spacingAndGlyphs" textLength="129" x="241" y="283.9951">Managed device</text><!--cluster md3--><rect fill="#FFFFFF" filter="url(#fk1n9bq91sfqg)" height="71" style="stroke: #000000; stroke-width: 1.5;" width="205" x="462" y="270"/><path d="M601,271 L601,279.2969 L591,289.2969 L462,289.2969 " fill="none" style="stroke: #000000; stroke-width: 1.5;"/><text fill="#000000" font-family="sans-serif" font-size="14" font-weight="bold" lengthAdjust="spacingAndGlyphs" textLength="129" x="465" y="283.9951">Managed device</text><!--cluster repo--><path d="M365,26.5 C365,16.5 435,16.5 435,16.5 C435,16.5 505,16.5 505,26.5 L505,92.5 C505,102.5 435,102.5 435,102.5 C435,102.5 365,102.5 365,92.5 L365,26.5 " fill="#FFFFFF" filter="url(#fk1n9bq91sfqg)" style="stroke: #000000; stroke-width: 1.5;"/><path d="M365,26.5 C365,36.5 435,36.5 435,36.5 C435,36.5 505,36.5 505,26.5 " fill="none" style="stroke: #000000; stroke-width: 1.5;"/><text fill="#000000" font-family="sans-serif" font-size="14" font-weight="bold" lengthAdjust="spacingAndGlyphs" textLength="87" x="391.5" y="50.4951">Repository</text><!--entity da1--><rect fill="#FEFECE" filter="url(#fk1n9bq91sfqg)" height="36.2969" style="stroke: #A80036; stroke-width: 1.5;" width="153" x="22.5" y="297"/><rect fill="#FEFECE" height="5" style="stroke: #A80036; stroke-width: 1.5;" width="10" x="17.5" y="302"/><rect fill="#FEFECE" height="5" style="stroke: #A80036; stroke-width: 1.5;" width="10" x="17.5" y="323.2969"/><text fill="#000000" font-family="sans-serif" font-size="14" lengthAdjust="spacingAndGlyphs" textLength="133" x="32.5" y="319.9951">Deployment Agent</text><!--entity da2--><rect fill="#FEFECE" filter="url(#fk1n9bq91sfqg)" height="36.2969" style="stroke: #A80036; stroke-width: 1.5;" width="153" x="246.5" y="297"/><rect fill="#FEFECE" height="5" style="stroke: #A80036; stroke-width: 1.5;" width="10" x="241.5" y="302"/><rect fill="#FEFECE" height="5" style="stroke: #A80036; stroke-width: 1.5;" width="10" x="241.5" y="323.2969"/><text fill="#000000" font-family="sans-serif" font-size="14" lengthAdjust="spacingAndGlyphs" textLength="133" x="256.5" y="319.9951">Deployment Agent</text><!--entity da3--><rect fill="#FEFECE" filter="url(#fk1n9bq91sfqg)" height="36.2969" style="stroke: #A80036; stroke-width: 1.5;" width="153" x="470.5" y="297"/><rect fill="#FEFECE" height="5" style="stroke: #A80036; stroke-width: 1.5;" width="10" x="465.5" y="302"/><rect fill="#FEFECE" height="5" style="stroke: #A80036; stroke-width: 1.5;" width="10" x="465.5" y="323.2969"/><text fill="#000000" font-family="sans-serif" font-size="14" lengthAdjust="spacingAndGlyphs" textLength="133" x="480.5" y="319.9951">Deployment Agent</text><!--entity cfg--><polygon fill="#FEFECE" filter="url(#fk1n9bq91sfqg)" points="373,58.5,373,94.7969,497,94.7969,497,68.5,487,58.5,373,58.5" style="stroke: #000000; stroke-width: 1.5;"/><path d="M487,58.5 L487,68.5 L497,68.5 " fill="#FEFECE" style="stroke: #000000; stroke-width: 1.5;"/><text fill="#000000" font-family="sans-serif" font-size="14" lengthAdjust="spacingAndGlyphs" textLength="104" x="383" y="81.4951">Configurations</text><!--entity ops--><ellipse cx="306" cy="45" fill="#FEFECE" filter="url(#fk1n9bq91sfqg)" rx="8" ry="8" style="stroke: #A80036; stroke-width: 2.0;"/><path d="M306,53 L306,80 M293,61 L319,61 M306,80 L293,95 M306,80 L319,95 " fill="none" filter="url(#fk1n9bq91sfqg)" style="stroke: #A80036; stroke-width: 2.0;"/><text fill="#000000" font-family="sans-serif" font-size="14" lengthAdjust="spacingAndGlyphs" textLength="64" x="274" y="114.9951">Operator</text><!--entity ta--><rect fill="#FEFECE" filter="url(#fk1n9bq91sfqg)" height="36.2969" style="stroke: #A80036; stroke-width: 1.5;" width="145" x="362.5" y="179"/><rect fill="#FEFECE" height="5" style="stroke: #A80036; stroke-width: 1.5;" width="10" x="357.5" y="184"/><rect fill="#FEFECE" height="5" style="stroke: #A80036; stroke-width: 1.5;" width="10" x="357.5" y="205.2969"/><text fill="#000000" font-family="sans-serif" font-size="14" lengthAdjust="spacingAndGlyphs" textLength="125" x="372.5" y="201.9951">Translation agent</text><!--link ops to cfg--><path d="M338.25,76.5 C348.0122,76.5 357.7744,76.5 367.5366,76.5 " fill="none" id="ops-cfg" style="stroke: #A80036; stroke-width: 1.0;"/><polygon fill="#A80036" points="372.6416,76.5,363.6416,72.5,367.6416,76.5,363.6416,80.5,372.6416,76.5" style="stroke: #A80036; stroke-width: 1.0;"/><!--link cfg to ta--><path d="M435,94.5401 C435,115.6595 435,150.6844 435,173.806 " fill="none" id="cfg-ta" style="stroke: #A80036; stroke-width: 1.0;"/><polygon fill="#A80036" points="435,178.8366,439,169.8366,435,173.8366,431,169.8366,435,178.8366" style="stroke: #A80036; stroke-width: 1.0;"/><!--link ta to md1--><path d="M362.3339,207.8034 C319.2263,217.5647 266.123,235.8938 230,270 C226.4236,273.3767 223.4925,277.5332 221.0979,281.9428 C220.4992,283.0453 219.9341,284.1635 219.4007,285.2893 C219.2674,285.5708 219.1361,285.8527 219.0067,286.135 " fill="none" id="ta-md1" style="stroke: #A80036; stroke-width: 1.0;"/><polygon fill="#A80036" points="219.0067,286.135,226.3928,279.62,221.09,281.5896,219.1203,276.2868,219.0067,286.135" style="stroke: #A80036; stroke-width: 1.0;"/><text fill="#000000" font-family="sans-serif" font-size="13" lengthAdjust="spacingAndGlyphs" textLength="42" x="263" y="258.0669">profile</text><!--link ta to md2--><path d="M435,215.1789 C435,223.066 435,232.862 435,243.2095 C435,248.3832 435,253.6948 435,258.9745 C435,261.6144 435,264.2463 435,266.849 C435,267.4997 435,268.1485 435,268.7952 C435,269.1186 435,269.4414 435,269.7636 " fill="none" id="ta-md2" style="stroke: #A80036; stroke-width: 1.0;"/><polygon fill="#A80036" points="435,269.7636,439,260.7636,435,264.7636,431,260.7636,435,269.7636" style="stroke: #A80036; stroke-width: 1.0;"/><text fill="#000000" font-family="sans-serif" font-size="13" lengthAdjust="spacingAndGlyphs" textLength="42" x="436" y="258.0669">profile</text><!--link ta to md3--><path d="M504.8253,215.0727 C530.609,222.3464 559.6423,231.2641 584.7349,240.7705 C597.2812,245.5236 608.8423,250.424 618.5194,255.3395 C623.358,257.7973 627.7255,260.2589 631.5097,262.7078 C633.4018,263.9323 635.1481,265.1536 636.7345,266.3696 C637.5277,266.9776 638.2809,267.5843 638.9924,268.1895 C639.3482,268.4921 639.6935,268.7943 640.0282,269.096 C640.1955,269.2469 640.3602,269.3977 640.5222,269.5483 C640.6031,269.6237 640.6835,269.699 640.7631,269.7743 " fill="none" id="ta-md3" style="stroke: #A80036; stroke-width: 1.0;"/><polygon fill="#A80036" points="640.7631,269.7743,636.9701,260.6851,637.1294,266.3397,631.4748,266.499,640.7631,269.7743" style="stroke: #A80036; stroke-width: 1.0;"/><text fill="#000000" font-family="sans-serif" font-size="13" lengthAdjust="spacingAndGlyphs" textLength="42" x="631" y="258.0669">profile</text><!--
@startuml

actor "Operator" as ops

component "Translation agent" as ta

frame "Managed device" as md1 {
 component "Deployment Agent" as da1
}
frame "Managed device"  as md2 {
 component "Deployment Agent" as da2
}
frame "Managed device"  as md3 {
 component "Deployment Agent" as da3
}

database "Repository" as repo {
    file "Configurations" as cfg
}

ops -right-> cfg

cfg - -> ta

ta - -> md1: profile
ta - -> md2: profile
ta - -> md3: profile
@enduml

PlantUML version 1.2018.03(Thu Apr 05 18:59:15 CEST 2018)
(GPL source distribution)
Java Runtime: OpenJDK Runtime Environment
JVM: OpenJDK 64-Bit Server VM
Java Version: 1.8.0_171-b10
Operating System: Linux
OS Version: 4.16.14-300.fc28.x86_64
Default Encoding: UTF-8
Language: en
Country: US
--></g></svg>